<?xml version="1.0" standalone="no"?>
<!DOCTYPE svg PUBLIC "-//W3C//DTD SVG 20010904//EN"
 "http://www.w3.org/TR/2001/REC-SVG-20010904/DTD/svg10.dtd">
<svg version="1.0" xmlns="http://www.w3.org/2000/svg"
 width="146.000000pt" height="30.000000pt" viewBox="0 0 446.000000 84.000000"
 preserveAspectRatio="xMidYMid meet">

<g transform="translate(0.000000,84.000000) scale(0.100000,-0.100000)"
fill="#ffffff" stroke="none">
<path fill="#632382" d="M90 420 l0 -330 440 0 440 0 0 330 0 330 -173 0 -173 0 -39 -127
c-60 -202 -50 -199 -104 -28 l-46 150 -173 3 -172 2 0 -330z"/>
<path d="M1795 646 c-73 -33 -107 -92 -113 -196 -6 -102 10 -155 62 -206 32
-33 52 -44 89 -49 96 -15 167 19 207 99 43 89 29 245 -28 310 -44 49 -153 70
-217 42z m122 -81 c45 -31 58 -167 23 -242 -22 -50 -58 -65 -99 -42 -42 24
-52 55 -49 157 3 89 5 95 31 118 32 28 63 31 94 9z"/>
<path d="M2120 651 c-18 -5 -24 -13 -22 -27 13 -72 107 -392 120 -406 11 -14
31 -18 76 -18 l61 0 60 215 c32 117 59 218 59 222 1 4 -20 9 -46 11 -45 3 -48
1 -54 -25 -4 -15 -24 -98 -45 -183 -20 -85 -39 -148 -42 -140 -3 8 -11 40 -17
71 -16 82 -67 260 -76 269 -15 13 -48 18 -74 11z"/>
<path d="M3725 641 c-52 -23 -78 -63 -78 -117 0 -64 24 -91 119 -135 78 -36
84 -41 84 -69 0 -43 -33 -54 -102 -34 -79 23 -90 22 -107 -8 -20 -36 -5 -54
67 -74 102 -30 216 0 240 64 37 94 4 154 -114 208 -78 36 -88 45 -79 73 9 28
50 34 113 16 53 -16 57 -16 69 1 7 10 13 28 13 41 0 18 -9 25 -52 38 -68 20
-124 19 -173 -4z"/>
<path d="M1179 643 c0 -5 -8 -106 -17 -225 l-18 -218 47 0 46 0 7 46 c3 26 6
81 7 123 0 42 4 95 7 119 7 41 8 37 37 -87 29 -124 31 -131 57 -137 16 -3 41
-3 56 1 28 6 30 11 57 128 15 67 32 126 36 131 5 6 9 -29 9 -80 0 -50 3 -125
6 -167 l7 -77 49 0 49 0 -5 42 c-3 24 -10 111 -16 193 -6 83 -13 165 -16 183
l-5 33 -67 -3 -67 -3 -30 -132 c-16 -73 -32 -133 -35 -133 -3 0 -18 61 -34
135 l-28 135 -69 0 c-38 0 -69 -3 -70 -7z"/>
<path d="M2540 425 l0 -225 50 0 50 0 0 225 0 225 -50 0 -50 0 0 -225z"/>
<path d="M2740 442 c0 -258 -10 -242 153 -242 129 0 147 8 147 62 l0 30 -97
-3 -98 -3 -3 47 -3 47 75 0 76 0 0 45 0 45 -75 0 -75 0 0 45 0 44 93 3 92 3 3
43 3 42 -145 0 -146 0 0 -208z"/>
<path d="M3120 441 c0 -177 2 -212 16 -225 12 -13 38 -16 118 -16 114 0 130 7
140 58 l6 32 -90 0 -90 0 0 161 c0 91 -4 169 -10 180 -8 14 -21 19 -50 19
l-40 0 0 -209z"/>
<path d="M3460 425 l0 -225 55 0 55 0 0 225 0 225 -55 0 -55 0 0 -225z"/>
<path d="M3990 605 l0 -45 55 0 55 0 0 -180 0 -180 50 0 50 0 0 179 0 178 51
5 c55 6 69 18 69 61 l0 27 -165 0 -165 0 0 -45z"/>
</g>
</svg>
